<?xml version="1.0" encoding="UTF-8"?>
<svg xmlns="http://www.w3.org/2000/svg" width="1180" height="684" viewBox="0 0 1180 684">
  <defs>
    <marker id="arrow" viewBox="0 0 10 10" refX="9" refY="5" markerWidth="7" markerHeight="7" orient="auto-start-reverse">
      <path d="M 0 0 L 10 5 L 0 10 z" fill="#546e7a"/>
    </marker>
  </defs>
  <rect width="100%" height="100%" fill="#ffffff"/>
  <g transform="translate(0, 44)">
    <polyline points="550.5,248.0 520.0,200.0 560.6,142.0" fill="none" stroke="#546e7a" stroke-width="1.5" marker-end="url(#arrow)"/>
    <rect x="467.4" y="191.5" width="105.2" height="17" rx="3" fill="#ffffff" fill-opacity="0.92"/>
    <text x="520.0" y="203.5" text-anchor="middle" font-family="Arial, Helvetica, sans-serif" font-size="10" fill="#37474f">выигранные сделки</text>
    <polyline points="621.5,142.0 665.0,200.0 632.3,248.0" fill="none" stroke="#546e7a" stroke-width="1.5" stroke-dasharray="6 4" marker-end="url(#arrow)"/>
    <rect x="618.0" y="191.5" width="94.0" height="17" rx="3" fill="#ffffff" fill-opacity="0.92"/>
    <text x="665.0" y="203.5" text-anchor="middle" font-family="Arial, Helvetica, sans-serif" font-size="10" fill="#37474f">статус отгрузки</text>
    <polyline points="302.0,142.0 483.7,248.0" fill="none" stroke="#546e7a" stroke-width="1.5" stroke-dasharray="6 4" marker-end="url(#arrow)"/>
    <rect x="343.1" y="186.5" width="99.6" height="17" rx="3" fill="#ffffff" fill-opacity="0.92"/>
    <text x="392.9" y="198.5" text-anchor="middle" font-family="Arial, Helvetica, sans-serif" font-size="10" fill="#37474f">оплаты по счетам</text>
    <polyline points="699.2,248.0 886.0,142.0" fill="none" stroke="#546e7a" stroke-width="1.5" marker-end="url(#arrow)"/>
    <rect x="740.0" y="186.5" width="105.2" height="17" rx="3" fill="#ffffff" fill-opacity="0.92"/>
    <text x="792.6" y="198.5" text-anchor="middle" font-family="Arial, Helvetica, sans-serif" font-size="10" fill="#37474f">показатели продаж</text>
    <polyline points="342.0,310.0 468.0,310.0" fill="none" stroke="#546e7a" stroke-width="1.5" marker-end="url(#arrow)"/>
    <rect x="358.0" y="301.5" width="94.0" height="17" rx="3" fill="#ffffff" fill-opacity="0.92"/>
    <text x="405.0" y="313.5" text-anchor="middle" font-family="Arial, Helvetica, sans-serif" font-size="10" fill="#37474f">история звонков</text>
    <polyline points="848.0,310.0 712.0,310.0" fill="none" stroke="#546e7a" stroke-width="1.5" marker-end="url(#arrow)"/>
    <rect x="749.8" y="301.5" width="60.4" height="17" rx="3" fill="#ffffff" fill-opacity="0.92"/>
    <text x="780.0" y="313.5" text-anchor="middle" font-family="Arial, Helvetica, sans-serif" font-size="10" fill="#37474f">переписка</text>
    <polyline points="305.6,468.0 478.4,372.0" fill="none" stroke="#546e7a" stroke-width="1.5" marker-end="url(#arrow)"/>
    <rect x="375.8" y="411.5" width="32.4" height="17" rx="3" fill="#ffffff" fill-opacity="0.92"/>
    <text x="392.0" y="423.5" text-anchor="middle" font-family="Arial, Helvetica, sans-serif" font-size="10" fill="#37474f">лиды</text>
    <polyline points="704.7,372.0 882.3,468.0" fill="none" stroke="#546e7a" stroke-width="1.5" marker-end="url(#arrow)"/>
    <rect x="752.1" y="411.5" width="82.8" height="17" rx="3" fill="#ffffff" fill-opacity="0.92"/>
    <text x="793.5" y="423.5" text-anchor="middle" font-family="Arial, Helvetica, sans-serif" font-size="10" fill="#37474f">КП и договоры</text>
    <polyline points="590.0,372.0 590.0,468.0" fill="none" stroke="#546e7a" stroke-width="1.5" marker-end="url(#arrow)"/>
    <rect x="470" y="250" width="240" height="120" rx="4" ry="4" fill="#e3dcec" stroke="#7c5295" stroke-width="1.5"/>
    <text x="590" y="298" text-anchor="middle" font-family="Arial, Helvetica, sans-serif" font-size="12" font-weight="bold" fill="#263238">CRM</text>
    <text x="590" y="314" text-anchor="middle" font-family="Arial, Helvetica, sans-serif" font-size="12"  fill="#263238">АРМ менеджера</text>
    <text x="590" y="330" text-anchor="middle" font-family="Arial, Helvetica, sans-serif" font-size="12"  fill="#263238">по работе с клиентами</text>
    <rect x="470" y="60" width="240" height="80" rx="4" ry="4" fill="#dbe7f3" stroke="#1c4e80" stroke-width="1.5"/>
    <text x="590" y="96" text-anchor="middle" font-family="Arial, Helvetica, sans-serif" font-size="12" font-weight="bold" fill="#263238">ERP</text>
    <text x="590" y="112" text-anchor="middle" font-family="Arial, Helvetica, sans-serif" font-size="12"  fill="#263238">учёт заказов и запасов</text>
    <rect x="120" y="60" width="220" height="80" rx="4" ry="4" fill="#dbe7f3" stroke="#1c4e80" stroke-width="1.5"/>
    <text x="230" y="96" text-anchor="middle" font-family="Arial, Helvetica, sans-serif" font-size="12" font-weight="bold" fill="#263238">Бухгалтерия</text>
    <text x="230" y="112" text-anchor="middle" font-family="Arial, Helvetica, sans-serif" font-size="12"  fill="#263238">счета и оплаты</text>
    <rect x="850" y="60" width="220" height="80" rx="4" ry="4" fill="#fbe4cd" stroke="#ed6c02" stroke-width="1.5"/>
    <text x="960" y="96" text-anchor="middle" font-family="Arial, Helvetica, sans-serif" font-size="12" font-weight="bold" fill="#263238">Аналитика (BI)</text>
    <text x="960" y="112" text-anchor="middle" font-family="Arial, Helvetica, sans-serif" font-size="12"  fill="#263238">отчётность руководства</text>
    <rect x="120" y="270" width="220" height="80" rx="4" ry="4" fill="#eceff1" stroke="#607d8b" stroke-width="1.5"/>
    <text x="230" y="306" text-anchor="middle" font-family="Arial, Helvetica, sans-serif" font-size="12" font-weight="bold" fill="#263238">Телефония</text>
    <text x="230" y="322" text-anchor="middle" font-family="Arial, Helvetica, sans-serif" font-size="12"  fill="#263238">входящие и исходящие звонки</text>
    <rect x="850" y="270" width="220" height="80" rx="4" ry="4" fill="#eceff1" stroke="#607d8b" stroke-width="1.5"/>
    <text x="960" y="306" text-anchor="middle" font-family="Arial, Helvetica, sans-serif" font-size="12" font-weight="bold" fill="#263238">Электронная почта</text>
    <text x="960" y="322" text-anchor="middle" font-family="Arial, Helvetica, sans-serif" font-size="12"  fill="#263238">переписка с клиентами</text>
    <rect x="120" y="470" width="220" height="80" rx="4" ry="4" fill="#eceff1" stroke="#607d8b" stroke-width="1.5"/>
    <text x="230" y="506" text-anchor="middle" font-family="Arial, Helvetica, sans-serif" font-size="12" font-weight="bold" fill="#263238">Сайт и заявки</text>
    <text x="230" y="522" text-anchor="middle" font-family="Arial, Helvetica, sans-serif" font-size="12"  fill="#263238">источник лидов</text>
    <rect x="850" y="470" width="220" height="80" rx="4" ry="4" fill="#eceff1" stroke="#607d8b" stroke-width="1.5"/>
    <text x="960" y="506" text-anchor="middle" font-family="Arial, Helvetica, sans-serif" font-size="12" font-weight="bold" fill="#263238">Документооборот</text>
    <text x="960" y="522" text-anchor="middle" font-family="Arial, Helvetica, sans-serif" font-size="12"  fill="#263238">договоры и КП</text>
    <path d="M 490 482 L 490 534 A 100 12 0 0 0 690 534 L 690 482" fill="#dbeddc" stroke="#2e7d32" stroke-width="1.5"/>
    <ellipse cx="590" cy="482" rx="100" ry="12" fill="#dbeddc" stroke="#2e7d32" stroke-width="1.5"/>
    <text x="590" y="512" text-anchor="middle" font-family="Arial, Helvetica, sans-serif" font-size="12"  fill="#263238">База данных CRM</text>
  </g>
  <text x="590" y="26" text-anchor="middle" font-family="Arial, Helvetica, sans-serif" font-size="14" font-weight="bold" fill="#263238">Рисунок 5 — MES-диаграмма (место CRM в КИС)</text>
</svg>
